<?xml version="1.0" encoding="utf-8"?>
<!-- Generator: Adobe Illustrator 27.5.0, SVG Export Plug-In . SVG Version: 6.00 Build 0)  -->
<svg version="1.1" xmlns="http://www.w3.org/2000/svg" xmlns:xlink="http://www.w3.org/1999/xlink" x="0px" y="0px"
	 viewBox="0 0 512 512" style="enable-background:new 0 0 512 512;" xml:space="preserve">
<style type="text/css">
	.st0{fill:url(#SVGID_1_);}
	.st1{fill:#FFFFFF;}
</style>
<g id="Layer_1">
</g>
<g id="Layer_3">
	
		<linearGradient id="SVGID_1_" gradientUnits="userSpaceOnUse" x1="-1.838092e-03" y1="1.838091e-03" x2="511.9982" y2="512.0018" gradientTransform="matrix(1 0 0 1 1.838075e-03 -1.838074e-03)">
		<stop  offset="0" style="stop-color:#FF0000"/>
		<stop  offset="1" style="stop-color:#FF7B7B"/>
	</linearGradient>
	<rect x="0" y="0" class="st0" width="512" height="512"/>
</g>
<g id="Layer_4">
	<g>
		<path class="st1" d="M100.55,192.95h70.87c2.72,0,4.72,0.32,5.99,0.96c1.27,0.64,2.12,1.64,2.55,3.01
			c0.42,1.37,0.64,3.16,0.64,5.38c0,2.22-0.21,3.99-0.64,5.31c-0.43,1.32-1.15,2.24-2.17,2.75c-1.53,0.77-3.7,1.15-6.5,1.15h-24.35
			v64.38c0,1.96-0.06,3.41-0.19,4.35c-0.13,0.94-0.51,2.03-1.15,3.26c-0.64,1.24-1.76,2.11-3.38,2.62
			c-1.62,0.51-3.74,0.77-6.37,0.77c-2.63,0-4.74-0.26-6.31-0.77c-1.57-0.51-2.68-1.39-3.31-2.62c-0.64-1.24-1.02-2.35-1.15-3.33
			c-0.13-0.98-0.19-2.45-0.19-4.42v-64.26h-24.47c-2.72,0-4.72-0.32-5.99-0.96c-1.27-0.64-2.12-1.64-2.55-3.01
			c-0.43-1.36-0.64-3.16-0.64-5.38c0-2.22,0.21-3.99,0.64-5.31c0.42-1.32,1.15-2.24,2.17-2.75
			C95.58,193.34,97.75,192.95,100.55,192.95z"/>
		<path class="st1" d="M210.17,264.25h39.26c1.95,0,3.42,0.06,4.4,0.19c0.98,0.13,2.1,0.53,3.38,1.22c2.29,1.2,3.44,4.52,3.44,9.98
			c0,5.97-1.57,9.47-4.72,10.5c-1.45,0.51-3.65,0.77-6.63,0.77h-50.48c-5.95,0-9.43-1.62-10.45-4.86c-0.51-1.36-0.77-3.54-0.77-6.53
			v-71.17c0-4.35,0.81-7.32,2.42-8.9c1.61-1.58,4.67-2.37,9.18-2.37h50.22c1.95,0,3.42,0.06,4.4,0.19c0.98,0.13,2.1,0.53,3.38,1.22
			c2.29,1.2,3.44,4.52,3.44,9.98c0,5.97-1.57,9.47-4.72,10.5c-1.45,0.51-3.65,0.77-6.63,0.77h-39.13v12.93h25.24
			c1.95,0,3.42,0.06,4.4,0.19c0.98,0.13,2.1,0.53,3.38,1.22c2.29,1.2,3.44,4.52,3.44,9.98c0,5.97-1.62,9.47-4.84,10.5
			c-1.45,0.51-3.66,0.77-6.63,0.77h-24.98V264.25z"/>
		<path class="st1" d="M280.28,192.95l23.58,0.13c12.32,0,23.16,4.46,32.51,13.38c9.35,8.92,14.02,19.88,14.02,32.9
			c0,13.01-4.57,24.17-13.7,33.47c-9.14,9.3-20.2,13.95-33.21,13.95h-23.33c-5.18,0-8.41-1.07-9.69-3.2
			c-1.02-1.79-1.53-4.52-1.53-8.19v-71.17c0-2.05,0.06-3.54,0.19-4.48c0.13-0.94,0.53-2.05,1.21-3.33
			C271.53,194.11,274.84,192.95,280.28,192.95z M320.43,257.27c4.93-4.56,7.39-10.3,7.39-17.22s-2.4-12.69-7.2-17.34
			c-4.8-4.65-10.43-6.98-16.89-6.98H291.5v48.38h12.36C309.98,264.12,315.51,261.84,320.43,257.27z"/>
		<path class="st1" d="M354.85,273.72c-2.21-2.73-3.31-5.18-3.31-7.36s1.83-5.06,5.48-8.64c2.12-2.05,4.38-3.07,6.76-3.07
			c2.38,0,5.69,2.13,9.94,6.4c1.19,1.45,2.89,2.84,5.1,4.16c2.21,1.32,4.25,1.98,6.12,1.98c7.9,0,11.85-3.24,11.85-9.73
			c0-1.96-1.08-3.6-3.25-4.93c-2.17-1.32-4.87-2.28-8.09-2.88c-3.23-0.6-6.71-1.56-10.45-2.88c-3.74-1.32-7.22-2.88-10.45-4.67
			c-3.23-1.79-5.93-4.63-8.09-8.51c-2.17-3.88-3.25-8.55-3.25-14.02c0-7.51,2.78-14.06,8.35-19.65c5.56-5.59,13.15-8.38,22.75-8.38
			c5.1,0,9.75,0.66,13.96,1.98c4.21,1.32,7.12,2.67,8.73,4.03l3.19,2.43c2.63,2.48,3.95,4.57,3.95,6.27c0,1.71-1.02,4.05-3.06,7.04
			c-2.89,4.27-5.86,6.4-8.92,6.4c-1.78,0-3.99-0.85-6.63-2.56c-0.25-0.17-0.74-0.6-1.46-1.28c-0.72-0.68-1.38-1.24-1.98-1.66
			c-1.78-1.11-4.06-1.66-6.82-1.66c-2.76,0-5.06,0.66-6.88,1.98c-1.83,1.32-2.74,3.16-2.74,5.5c0,2.35,1.08,4.25,3.25,5.7
			c2.17,1.45,4.86,2.43,8.09,2.94c3.23,0.51,6.76,1.3,10.58,2.37c3.82,1.07,7.35,2.37,10.58,3.9c3.23,1.54,5.93,4.2,8.09,8
			c2.17,3.8,3.25,8.47,3.25,14.02c0,5.55-1.11,10.43-3.31,14.66c-2.21,4.22-5.1,7.49-8.67,9.79c-6.88,4.52-14.23,6.78-22.05,6.78
			c-4,0-7.78-0.49-11.34-1.47c-3.57-0.98-6.46-2.2-8.67-3.65c-4.51-2.73-7.65-5.38-9.43-7.94L354.85,273.72z"/>
	</g>
</g>
</svg>
